<svg width="82" height="80" viewBox="0 0 82 80" fill="none" xmlns="http://www.w3.org/2000/svg">
<path d="M0.431714 35.9647C0.197799 35.2644 0.0596711 34.5439 0.0149671 33.8079C-0.0285556 33.0696 0.0231314 32.3389 0.171209 31.6135C0.319879 30.8898 0.557265 30.1956 0.888689 29.5351C1.21775 28.8733 1.62784 28.2653 2.11662 27.7099L24.1675 2.84207C24.6587 2.28781 25.2137 1.8068 25.8327 1.39905C26.4498 0.991898 27.1096 0.67102 27.812 0.436417C28.5144 0.201815 29.2346 0.0617846 29.9726 0.0163246C30.7123 -0.0297281 31.4432 0.0217653 32.1689 0.16962L64.7347 6.79536C65.4604 6.94321 66.1535 7.18272 66.816 7.51328C67.4785 7.84385 68.0866 8.25367 68.6409 8.74451C69.1946 9.23359 69.675 9.78655 70.0839 10.4028C70.4929 11.0191 70.8155 11.678 71.0494 12.3783L81.5696 43.876C81.8036 44.5764 81.9417 45.2969 81.9852 46.0352C82.0287 46.7735 81.977 47.5042 81.829 48.2297C81.6803 48.9533 81.4405 49.6463 81.1097 50.3087C80.7789 50.971 80.3688 51.579 79.8776 52.1332L57.8315 77.0034C57.3397 77.5559 56.7865 78.0363 56.1675 78.4441C55.5504 78.8512 54.8906 79.1721 54.1882 79.4067C53.4858 79.6413 52.7656 79.7813 52.0276 79.8268C51.2879 79.8729 50.5552 79.822 49.8301 79.6759L17.2595 73.0478C16.5357 72.8993 15.8425 72.6598 15.1818 72.3287C14.5193 71.9981 13.913 71.5877 13.3587 71.0968C12.805 70.6078 12.324 70.053 11.9156 69.4385C11.5085 68.8217 11.1859 68.1628 10.952 67.4624L0.431714 35.9647Z" fill="white" fill-opacity="0.04"/>
</svg>
